HIERARCHY
ROOT Hips
{
 OFFSET 0.000000 0.000000 0.000000
 CHANNELS 6 Xposition Yposition Zposition Yrotation Xrotation Zrotation
 JOINT Chest
 {
  OFFSET 0.000000 9.581000 -0.001100
  CHANNELS 3 Yrotation Xrotation Zrotation
  JOINT Chest2
  {
   OFFSET 0.000000 9.561100 0.002200
   CHANNELS 3 Yrotation Xrotation Zrotation
   JOINT Chest3
   {
    OFFSET 0.000000 9.521100 0.000000
    CHANNELS 3 Yrotation Xrotation Zrotation
    JOINT Chest4
    {
     OFFSET 0.000000 9.511400 0.000000
     CHANNELS 3 Yrotation Xrotation Zrotation
     JOINT Neck
     {
      OFFSET 0.000000 14.375100 0.000000
      CHANNELS 3 Yrotation Xrotation Zrotation
      JOINT Head
      {
       OFFSET 0.000000 8.901200 0.004600
       CHANNELS 3 Yrotation Xrotation Zrotation
       End Site
       {
        OFFSET 0.000000 16.962200 0.002400
       }
      }
     }
     JOINT RightCollar
     {
      OFFSET -2.920100 9.518800 0.000000
      CHANNELS 3 Yrotation Xrotation Zrotation
      JOINT RightShoulder
      {
       OFFSET -13.664500 0.000000 0.000000
       CHANNELS 3 Yrotation Xrotation Zrotation
       JOINT RightElbow
       {
        OFFSET 0.000000 -29.999200 0.000000
        CHANNELS 3 Yrotation Xrotation Zrotation
        JOINT RightWrist
        {
         OFFSET 0.000000 -24.253600 0.000000
         CHANNELS 3 Yrotation Xrotation Zrotation
         End Site
         {
          OFFSET 0.000000 -17.918900 0.000000
         }
        }
       }
      }
     }
     JOINT LeftCollar
     {
      OFFSET 2.920100 9.518800 0.000000
      CHANNELS 3 Yrotation Xrotation Zrotation
      JOINT LeftShoulder
      {
       OFFSET 13.664500 0.000000 0.000000
       CHANNELS 3 Yrotation Xrotation Zrotation
       JOINT LeftElbow
       {
        OFFSET 0.000000 -29.999200 0.000000
        CHANNELS 3 Yrotation Xrotation Zrotation
        JOINT LeftWrist
        {
         OFFSET 0.000000 -24.253600 0.000000
         CHANNELS 3 Yrotation Xrotation Zrotation
         End Site
         {
          OFFSET 0.000000 -17.918900 0.000000
         }
        }
       }
      }
     }
    }
   }
  }
 }
 JOINT RightHip
 {
  OFFSET -7.797300 0.005300 0.000500
  CHANNELS 3 Yrotation Xrotation Zrotation
  JOINT RightKnee
  {
   OFFSET 0.000000 -40.663400 -0.000500
   CHANNELS 3 Yrotation Xrotation Zrotation
   JOINT RightAnkle
   {
    OFFSET 0.000000 -39.523700 -0.000900
    CHANNELS 3 Yrotation Xrotation Zrotation
    JOINT RightToe
    {
     OFFSET 0.000000 -6.418000 14.485300
     CHANNELS 3 Yrotation Xrotation Zrotation
     End Site
     {
      OFFSET 0.000000 -1.465200 6.326400
     }
    }
   }
  }
 }
 JOINT LeftHip
 {
  OFFSET 7.797300 0.005300 0.000500
  CHANNELS 3 Yrotation Xrotation Zrotation
  JOINT LeftKnee
  {
   OFFSET 0.000000 -40.663400 -0.000500
   CHANNELS 3 Yrotation Xrotation Zrotation
   JOINT LeftAnkle
   {
    OFFSET 0.000000 -39.523700 -0.000900
    CHANNELS 3 Yrotation Xrotation Zrotation
    JOINT LeftToe
    {
     OFFSET 0.000000 -6.418000 14.485300
     CHANNELS 3 Yrotation Xrotation Zrotation
     End Site
     {
      OFFSET 0.000000 -1.465200 6.326400
     }
    }
   }
  }
 }
}
MOTION
Frames: 16
Frame Time: 0.008333
0.000000 86.422400 0.000000 0.000000 -5.767877 0.000000 0.000000 11.653817 0.000000 0.000000 -5.885947 0.000000 0.000000 -0.000000 0.000000 0.000000 -0.000000 0.000000 0.000000 12.528835 0.000000 0.000000 0.711642 0.000000 0.000000 -0.000000 0.000000 0.000000 0.000000 -90.000000 0.000000 -2.309062 0.000000 0.000000 2.309062 0.000000 0.000000 -0.000000 0.000000 0.000000 -0.000000 90.000000 0.000000 -2.309062 0.000000 0.000000 2.309062 0.000000 0.000000 8.520406 0.000000 0.000000 1.905762 0.000000 -0.000000 -4.658285 0.000000 0.000000 -0.000000 0.000000 0.000000 8.520406 0.000000 0.000000 1.905762 0.000000 -0.000000 -4.658285 0.000000 0.000000 -0.000000 0.000000
-9.978037 126.714100 5.937114 165.452176 -36.365148 -1.468515 1.976142 21.045467 0.502536 0.236785 2.778011 0.024580 0.403919 4.530555 0.056192 1.632923 18.002302 0.399972 6.396454 18.700032 -0.924601 7.118208 -5.746611 -2.472985 -2.997249 2.195411 2.995607 -4.769721 -5.905905 -7.616567 -137.818933 -57.458352 165.881000 -3.547406 -12.054382 -38.535083 -6.637777 2.155079 0.718840 -0.682891 -13.225576 8.294116 160.294306 -73.121563 -174.682837 -19.540823 -16.031014 33.730696 6.928087 -49.176412 3.476563 -87.279019 83.802383 -83.436292 10.429051 -20.826039 2.033489 -0.031376 -0.069012 -0.013887 -4.844322 -39.628900 -1.118043 53.893377 82.923351 46.895313 3.026697 -8.702706 3.481977 -0.004137 0.003073 -0.001833
-9.980675 126.715513 5.937689 165.479427 -36.387909 -1.475208 1.956609 21.065663 0.497772 0.240673 2.777552 0.027461 0.403834 4.538831 0.056936 1.627582 18.014029 0.405829 6.363045 18.686844 -0.934481 7.083402 -5.761094 -2.474013 -2.994354 2.172421 2.993951 -4.723022 -5.936117 -7.662587 -137.716403 -57.457164 165.754217 -3.593573 -12.051249 -38.517262 -6.636058 2.126744 0.688009 -0.734096 -13.252212 8.314539 160.307715 -73.166212 -174.684320 -19.553835 -16.038244 33.724564 6.955334 -49.071994 3.501530 -87.064415 83.852760 -83.214068 10.374770 -21.042315 1.933720 -0.014766 -0.083272 -0.006533 -4.853383 -39.611376 -1.128773 54.086652 82.900402 47.079533 2.994795 -8.698660 3.486792 -0.004740 0.001222 -0.002100
-9.985978 126.714518 5.941380 165.476031 -36.387785 -1.454620 1.964499 21.061710 0.486540 0.240055 2.781026 0.028313 0.401793 4.547592 0.058305 1.619780 18.014310 0.406302 6.330140 18.679397 -0.938243 7.055450 -5.782931 -2.480476 -2.985944 2.159423 2.997549 -4.700568 -5.951207 -7.697964 -137.635529 -57.452907 165.670890 -3.576242 -12.049064 -38.508535 -6.632813 2.111508 0.663116 -0.781821 -13.281272 8.330728 160.366612 -73.210253 -174.727826 -19.560363 -16.042953 33.713238 7.000784 -49.016051 3.494741 -87.038589 83.929832 -83.186734 10.363485 -21.200259 1.833005 -0.015747 -0.129998 -0.006961 -4.826817 -39.617522 -1.153746 54.135367 82.894319 47.128282 2.988456 -8.696849 3.479414 0.002468 0.000220 0.001094
-9.986310 126.715565 5.944039 165.494896 -36.406298 -1.476105 1.973249 21.077161 0.510836 0.231165 2.785553 0.027185 0.402116 4.556992 0.059117 1.611969 18.012687 0.409094 6.313641 18.670605 -0.945417 7.012057 -5.810672 -2.484641 -2.975403 2.146070 3.001932 -4.696789 -5.958123 -7.722920 -137.596604 -57.451890 165.647488 -3.553962 -12.044665 -38.500297 -6.632375 2.098321 0.640675 -0.806724 -13.294784 8.345722 160.405340 -73.231262 -174.758678 -19.559281 -16.042113 33.712603 6.984228 -48.884620 3.574281 -86.466598 83.955785 -82.622382 10.335955 -21.401280 1.741238 -0.002827 -0.114081 -0.001249 -4.835712 -39.599613 -1.143196 54.191814 82.879540 47.184307 2.975930 -8.697470 3.477200 0.001206 0.002971 0.000534
-9.986713 126.715591 5.948296 165.511723 -36.413035 -1.499850 1.968184 21.083598 0.527687 0.238832 2.789752 0.030545 0.402199 4.564811 0.058773 1.614845 18.042841 0.420360 6.284656 18.629645 -0.961250 6.969327 -5.843015 -2.493419 -2.975494 2.100685 3.005382 -4.691613 -5.966133 -7.750312 -137.584309 -57.457041 165.636399 -3.543824 -12.043853 -38.492041 -6.644559 2.054647 0.628068 -0.824294 -13.309179 8.351569 160.445513 -73.249930 -174.792595 -19.590970 -16.030684 33.695475 6.930502 -48.748930 3.675405 -85.598681 83.933638 -81.778547 10.355954 -21.579342 1.652876 -0.001820 -0.091424 -0.000805 -4.845023 -39.590505 -1.124712 54.160023 82.858292 47.145036 2.972845 -8.694227 3.474704 -0.005943 0.004720 -0.002633
-9.988145 126.716397 5.951169 165.524856 -36.425848 -1.514650 1.973509 21.097081 0.542645 0.243393 2.796378 0.031475 0.396111 4.567206 0.058820 1.618734 18.059378 0.427272 6.246117 18.603183 -0.975606 6.940387 -5.880694 -2.507410 -2.983450 2.072985 3.007788 -4.650298 -5.982272 -7.797446 -137.596460 -57.462072 165.624476 -3.554716 -12.051169 -38.519540 -6.656726 2.028585 0.619186 -0.851473 -13.334887 8.355005 160.562300 -73.283984 -174.895002 -19.609722 -16.027993 33.673140 6.869935 -48.608640 3.764585 -84.755173 83.922591 -80.968313 10.390300 -21.738665 1.568880 -0.007748 -0.089211 -0.003428 -4.845742 -39.574726 -1.115268 54.054614 82.843993 47.036948 2.963063 -8.683666 3.484405 -0.008162 0.008252 -0.003617
-9.993296 126.719739 5.949244 165.556016 -36.462493 -1.512474 1.962572 21.134197 0.530460 0.228702 2.798792 0.030713 0.402944 4.572906 0.061751 1.621572 18.067138 0.434386 6.211650 18.581610 -0.992111 6.912106 -5.918328 -2.525236 -2.993143 2.056852 3.009362 -4.647265 -5.984389 -7.808022 -137.638729 -57.477320 165.685723 -3.550189 -12.046062 -38.506129 -6.659161 2.026801 0.604930 -0.892973 -13.368623 8.365178 160.672210 -73.318508 -174.987490 -19.654877 -16.018391 33.627519 6.828276 -48.429560 3.816408 -84.145457 83.985407 -80.410749 10.349004 -21.954988 1.504759 -0.014304 -0.086494 -0.006328 -4.840480 -39.536710 -1.145307 53.948085 82.837052 46.930595 2.953568 -8.675779 3.485463 -0.000688 0.009828 -0.000305
-9.997216 126.721510 5.949789 165.570031 -36.481019 -1.511531 1.961519 21.152435 0.527131 0.226439 2.802170 0.031926 0.406207 4.576361 0.064168 1.624355 18.073857 0.444110 6.165263 18.538748 -1.028597 6.895494 -5.938148 -2.532738 -2.996984 2.037002 3.007217 -4.628381 -5.986738 -7.826869 -137.696852 -57.490146 165.736282 -3.550309 -12.021925 -38.443315 -6.671419 2.019511 0.594413 -0.912013 -13.383132 8.358060 160.827428 -73.347765 -175.127094 -19.666001 -16.009748 33.598331 6.805873 -48.262156 3.873822 -83.277071 84.006809 -79.582263 10.326956 -22.150375 1.446036 -0.018457 -0.083329 -0.008166 -4.839398 -39.517482 -1.158310 53.855298 82.828051 46.835173 2.950395 -8.671176 3.485359 0.001827 0.010046 0.000809
-9.998973 126.723337 5.950733 165.590768 -36.497781 -1.527688 1.962861 21.167591 0.538902 0.239777 2.806051 0.036190 0.392520 4.577644 0.065201 1.624703 18.078988 0.455677 6.135807 18.510576 -1.054400 6.868563 -5.970950 -2.553569 -2.991667 2.022671 3.004684 -4.611204 -5.981854 -7.848043 -137.734066 -57.494851 165.811247 -3.549973 -12.019553 -38.473748 -6.685952 2.011744 0.583047 -0.924393 -13.386346 8.347345 160.971400 -73.372492 -175.247440 -19.660234 -16.003657 33.574329 6.777960 -48.090946 3.946233 -82.239200 83.998585 -78.567175 10.298944 -22.324857 1.388571 -0.017659 -0.081747 -0.007813 -4.850874 -39.496128 -1.149344 53.693841 82.821529 46.670331 2.942720 -8.677900 3.485483 0.004267 0.005501 0.001890
-9.999198 126.726010 5.950765 165.644324 -36.520785 -1.570052 1.944875 21.189131 0.559889 0.228973 2.807742 0.036139 0.392208 4.578824 0.066703 1.623984 18.080955 0.461560 6.118487 18.483559 -1.075241 6.844561 -6.005367 -2.574666 -2.960518 2.018638 3.022479 -4.582222 -5.986959 -7.879892 -137.755259 -57.494680 165.810803 -3.533449 -12.012952 -38.490238 -6.685717 2.016073 0.578827 -0.932270 -13.378804 8.310907 161.157937 -73.429495 -175.413950 -19.650719 -16.033681 33.565290 6.725744 -47.908607 4.030732 -81.128048 83.977157 -77.469019 10.251711 -22.480987 1.333173 -0.015716 -0.079447 -0.006954 -4.912676 -39.474500 -1.117518 53.552143 82.823922 46.510900 2.936257 -8.673006 3.491054 0.009912 0.004462 0.004392
-10.002341 126.728277 5.950218 165.707874 -36.539748 -1.598938 1.913748 21.208310 0.562145 0.216606 2.808144 0.034284 0.391814 4.579699 0.068004 1.622691 18.082545 0.466686 6.104159 18.457026 -1.093997 6.821267 -6.044650 -2.595191 -2.958431 2.018643 3.026898 -4.535954 -5.998847 -7.892113 -137.761866 -57.498745 165.797625 -3.523009 -12.003874 -38.498220 -6.671187 2.044293 0.569730 -0.956113 -13.403553 8.309900 161.152689 -73.463741 -175.396434 -19.653482 -16.034640 33.556032 6.696215 -47.729788 4.086416 -79.958886 83.946006 -76.314319 10.191384 -22.606541 1.303221 -0.016427 -0.057936 -0.007271 -4.962220 -39.457883 -1.124317 53.235977 82.816360 46.182370 2.956764 -8.640389 3.501993 0.007865 0.003931 0.003485
-10.003459 126.731569 5.948514 165.760949 -36.569084 -1.629342 1.892974 21.239481 0.574551 0.219917 2.808599 0.034285 0.408417 4.592905 0.078931 1.615645 18.097481 0.485541 6.057554 18.407197 -1.129898 6.798544 -6.089538 -2.616270 -2.983787 1.992033 3.019460 -4.498457 -6.013658 -7.907718 -137.777370 -57.506641 165.778135 -3.554851 -11.992972 -38.468092 -6.690637 2.034747 0.549831 -0.973566 -13.419900 8.307240 161.105958 -73.499778 -175.338713 -19.653997 -16.032206 33.548441 6.670911 -47.548149 4.166058 -78.625116 83.921823 -75.015536 10.102596 -22.682500 1.342769 -0.032202 -0.014923 -0.014264 -5.010779 -39.428466 -1.120672 53.046984 82.809701 45.979575 2.964061 -8.633757 3.505944 0.005746 0.001553 0.002546
-10.001902 126.733939 5.948490 165.790950 -36.589742 -1.661523 1.895135 21.265611 0.605621 0.219361 2.805881 0.032478 0.407783 4.606898 0.084830 1.611791 18.109151 0.494838 6.034118 18.363243 -1.155560 6.786880 -6.106612 -2.623697 -2.941338 2.003587 3.053435 -4.499321 -6.069898 -7.955057 -137.751210 -57.502897 165.745669 -3.561754 -11.987717 -38.468150 -6.686585 2.031684 0.531998 -1.001743 -13.424689 8.295616 161.109069 -73.527739 -175.325651 -19.649797 -16.030119 33.544107 6.636454 -47.389118 4.297495 -77.070507 83.909988 -73.517496 9.960412 -22.720210 1.414401 -0.048420 0.034318 -0.021465 -5.066317 -39.408167 -1.089499 52.962833 82.804717 45.875464 2.965986 -8.645253 3.502562 0.002857 -0.003987 0.001266
-9.996959 126.734635 5.951296 165.804066 -36.594270 -1.705271 1.917818 21.280392 0.661847 0.236961 2.822816 0.044219 0.384219 4.595689 0.074240 1.612456 18.131184 0.509168 6.013252 18.316192 -1.182420 6.763681 -6.176549 -2.655343 -2.924041 1.987265 3.059373 -4.471990 -6.103809 -7.978634 -137.721411 -57.497547 165.712446 -3.570653 -11.986608 -38.470836 -6.677252 2.020453 0.508207 -1.038833 -13.431611 8.292605 161.095059 -73.556619 -175.292024 -19.642908 -16.034164 33.543335 6.547872 -47.270136 4.500051 -75.529958 83.863688 -72.038790 9.816760 -22.713772 1.465819 -0.036138 0.072004 -0.016029 -5.139663 -39.411017 -1.022168 52.964255 82.801393 45.848159 2.974841 -8.642487 3.503712 -0.003991 -0.006722 -0.001768
-9.992250 126.733067 5.956565 165.822349 -36.577363 -1.752902 1.932969 21.278927 0.718930 0.236396 2.828951 0.045911 0.383331 4.605058 0.076926 1.608385 18.147095 0.519365 5.994279 18.268616 -1.210793 6.746191 -6.245984 -2.688513 -2.903323 1.968230 3.061446 -4.444430 -6.138864 -7.995529 -137.702383 -57.494239 165.684271 -3.581154 -11.994394 -38.461691 -6.678606 1.986175 0.487037 -1.055298 -13.388712 8.281923 161.171340 -73.529624 -175.358453 -19.627709 -16.015961 33.549011 6.366094 -47.205642 4.750451 -74.434092 83.740171 -71.015862 9.739809 -22.646192 1.460108 -0.003099 0.100146 -0.001374 -5.196470 -39.430621 -0.964459 52.982918 82.761675 45.847456 2.961616 -8.627484 3.515654 -0.017207 -0.004674 -0.007624
